<svg xmlns="http://www.w3.org/2000/svg" viewBox="0 0 96 96">
  <defs>
    <linearGradient id="bg" x1="0" x2="1" y1="0" y2="1">
      <stop offset="0%" stop-color="#f0c77b"/>
      <stop offset="100%" stop-color="#d8763a"/>
    </linearGradient>
    <linearGradient id="door" x1="0" x2="0" y1="0" y2="1">
      <stop offset="0%" stop-color="#3f271d"/>
      <stop offset="100%" stop-color="#160f0c"/>
    </linearGradient>
  </defs>
  <rect width="96" height="96" rx="24" fill="#140d0a"/>
  <rect x="16" y="14" width="64" height="68" rx="16" fill="url(#bg)"/>
  <rect x="22" y="20" width="52" height="56" rx="12" fill="#f7ead4" opacity=".92"/>
  <path d="M48 28c11.046 0 20 8.954 20 20v20H28V48c0-11.046 8.954-20 20-20Z" fill="url(#door)"/>
  <path d="M48 28c7.732 0 14 6.268 14 14v20H34V42c0-7.732 6.268-14 14-14Z" fill="#241711"/>
  <rect x="44" y="44" width="8" height="18" rx="4" fill="#f0c77b"/>
  <circle cx="57" cy="51" r="2.6" fill="#d8763a"/>
  <path d="M25 72h46" stroke="#7c5436" stroke-width="4" stroke-linecap="round"/>
</svg>
